<?xml version="1.0" encoding="utf-8"?>
<!-- Svg Vector Icons : http://www.onlinewebfonts.com/icon -->
<!DOCTYPE svg PUBLIC "-//W3C//DTD SVG 1.1//EN" "http://www.w3.org/Graphics/SVG/1.1/DTD/svg11.dtd">
<svg version="1.1" xmlns="http://www.w3.org/2000/svg" xmlns:xlink="http://www.w3.org/1999/xlink" x="0px" y="0px" viewBox="0 0 1000 1000" enable-background="new 0 0 1000 1000" xml:space="preserve">
<metadata> Svg Vector Icons : http://www.onlinewebfonts.com/icon </metadata>
<g><g transform="translate(0.000000,264.000000) scale(0.100000,-0.100000)"><path d="M4645.9,158.4c-30.6-3.8-139.7-17.2-239.3-28.7c-432.6-47.9-976.2-201-1397.3-390.5C1690.6-854.1,657-2052.3,279.9-3428.6C170.8-3822.9,100-4301.4,100-4640.2c0-118.7,5.7-135.9,55.5-187.6c61.3-59.3,105.3-68.9,181.8-34.4c67,30.6,84.2,91.9,97.6,361.7c47.9,962.8,388.5,1879.6,981.9,2631.8c135.9,172.3,549.3,585.7,723.5,721.6c350.3,277.5,853.7,558.9,1276.7,713.9c773.3,283.3,1703.5,350.3,2520.8,179.9c685.2-141.6,1299.7-423,1885.4-865.2c183.7-139.7,612.5-562.7,759.9-752.2c310.1-392.4,601-932.1,752.2-1391.5c139.7-426.8,237.4-991.5,239.3-1401.1c1.9-120.6,19.1-160.8,90-197.1c67-36.4,120.6-26.8,179.9,32.5c51.7,51.7,55.5,67,55.5,197.1c0,76.6-9.6,225.8-19.1,331.1C9767.9-3137.6,9276-2098.3,8449.1-1273.3C7683.5-511.5,6734.1-34.9,5660.4,123.9C5476.6,150.7,4764.6,175.6,4645.9,158.4z"/><path d="M4540.6-854.1C3708-957.5,2942.4-1323.1,2318.4-1912.6c-679.5-645-1108.2-1517.9-1203.9-2451.9c-32.5-335-28.7-398.1,36.4-463.2c59.3-59.3,112.9-68.9,179.9-32.5c72.7,38.3,84.2,74.7,97.6,308.2c42.1,736.9,277.5,1401.1,702.5,1973.4c470.9,633.5,1173.3,1110.2,1923.6,1301.6c373.2,95.7,528.3,114.8,945.5,114.8c407.7,0,574.2-19.1,909.2-105.3C7228-1604.5,8232.9-2662.9,8502.7-4002.8c23-111,51.7-336.9,65.1-505.3c21-262.2,28.7-306.3,61.2-331.2c90-67,189.5-49.8,248.8,44c30.6,45.9,32.5,74.6,11.5,340.7c-95.7,1221.2-733.1,2300.7-1762.9,2984C6366.6-967.1,5428.8-745,4540.6-854.1z"/><path d="M4655.5-1839.9c-589.5-82.3-1140.8-335-1565.7-717.8c-601-541.7-936-1223.1-991.5-2013.6l-13.4-195.2l59.3-57.4c72.7-72.8,158.9-78.5,222-15.3c38.3,38.3,45.9,70.8,57.4,243.1c34.5,511.1,172.3,928.3,434.5,1320.7c367.5,549.3,937.9,930.2,1605.9,1073.8c287.1,61.2,782.9,61.2,1071.9,0c780.9-166.5,1414.5-650.8,1766.7-1351.3c158.9-313.9,245-646.9,273.7-1041.2c11.5-174.2,19.1-206.7,57.4-245c63.2-63.2,149.3-57.4,222,13.4l59.3,59.4l-15.3,195.2c-36.4,539.8-216.3,1056.6-516.8,1489.2c-157,225.8-551.3,612.5-773.3,761.8c-327.3,218.2-715.8,377.1-1092.9,451.7C5327.3-1832.2,4835.4-1815,4655.5-1839.9z"/><path d="M4680.3-2842.8c-264.1-51.7-472.8-135.9-713.9-292.9c-371.3-243.1-654.6-618.2-790.5-1052.7c-57.4-178-97.6-463.2-80.4-555.1c23-126.3,179.9-181.8,266.1-95.7c36.4,36.4,45.9,76.6,65.1,252.7c24.9,252.7,76.6,428.8,179.9,622.1c156.9,296.7,390.5,516.8,694.8,662.3c250.7,118.7,390.5,149.3,698.6,149.3c308.2,0,447.9-30.6,698.6-149.3c304.3-145.5,537.8-365.6,694.8-662.3c103.4-191.4,151.2-357.9,179.9-616.3c19.1-179.9,30.6-222,65.1-258.4c84.2-84.2,239.3-32.5,266.1,86.1c17.2,82.3-26.8,398.1-80.4,568.5c-202.9,643.1-727.3,1142.7-1382,1313.1C5252.7-2819.9,4871.8-2806.5,4680.3-2842.8z"/><path d="M4787.5-3838.2c-233.5-65.1-493.8-277.5-602.9-493.8c-59.3-116.7-109.1-344.5-93.8-419.2c15.3-68.9,93.8-132.1,166.5-132.1c84.2,0,141.6,70.8,158.9,193.3c30.6,252.6,124.4,398.1,312,490c93.8,45.9,132.1,53.6,271.8,53.6c139.7,0,178-7.6,271.8-53.6c189.5-91.9,281.4-239.3,313.9-499.6c19.1-157,141.7-231.6,252.7-153.1c68.9,47.9,82.3,109.1,61.3,252.6c-53.6,348.4-348.4,669.9-696.7,761.8C5084.2-3805.6,4906.2-3805.6,4787.5-3838.2z"/></g></g>
</svg>